<svg class="svg-icon" style="width: 1em; height: 1em;vertical-align: middle;fill: currentColor;overflow: hidden;" viewBox="0 0 1024 1024" version="1.1" xmlns="http://www.w3.org/2000/svg"><path d="M54.238432 0m114.468038 0l666.675654 0q114.468037 0 114.468037 114.468037l0 795.063926q0 114.468037-114.468037 114.468037l-666.675654 0q-114.468037 0-114.468038-114.468037l0-795.063926q0-114.468037 114.468038-114.468037Z" fill="#2588C4" /><path d="M850.337747 228.360858a25.309516 25.309516 0 0 0 12.654758 9.203461l2.876081 2.300865a13.229974 13.229974 0 0 1 4.026514 5.752162 35.663409 35.663409 0 0 1-0.575216 7.477812 24.159083 24.159083 0 0 1-2.300865 8.628244l-4.026514 8.053028a23.583867 23.583867 0 0 1-5.752163 5.176946l-5.752162 1.725649-4.601731-1.150433-6.902595-1.725649h-7.477811a20.132569 20.132569 0 0 0-8.053028 1.725649 21.283002 21.283002 0 0 0-6.902595 4.026514 25.884732 25.884732 0 0 0-6.902595 14.380407 27.610381 27.610381 0 0 0 2.300865 15.530839 10.929109 10.929109 0 0 1-0.575217 10.353893 20.132569 20.132569 0 0 1-5.176946 4.026514l-7.477812 4.026514-8.053027 2.876081-7.477812 1.150433a6.327379 6.327379 0 0 1-4.60173-1.725649l-2.876081-4.026514a37.964274 37.964274 0 0 0-9.778677-13.805191 25.884732 25.884732 0 0 0-15.530839-5.752162 27.610381 27.610381 0 0 0-16.106056 5.752162 32.212111 32.212111 0 0 0-9.778676 13.805191 6.902595 6.902595 0 0 1-4.026514 4.026514 8.053028 8.053028 0 0 1-5.176946 1.725649l-8.053028-1.150433-9.20346-3.451298-8.053028-4.60173a21.858218 21.858218 0 0 1-5.176947-5.176946 5.176946 5.176946 0 0 1-1.725648-4.026514 20.132569 20.132569 0 0 1 1.725648-6.902595 19.557353 19.557353 0 0 0 2.300866-13.229974 24.7343 24.7343 0 0 0-6.327379-13.805191 16.106055 16.106055 0 0 0-8.628244-4.60173 29.911246 29.911246 0 0 0-9.778677-1.150433 40.840355 40.840355 0 0 0-11.504325 2.300866 9.778677 9.778677 0 0 1-6.902596-0.575217 12.654758 12.654758 0 0 1-5.176946-4.60173 57.521627 57.521627 0 0 1-4.60173-8.053028 56.371194 56.371194 0 0 1-2.876081-9.20346 43.716436 43.716436 0 0 1-0.575217-8.053028 8.053028 8.053028 0 0 1 5.176947-6.902595 39.689922 39.689922 0 0 0 13.80519-10.353893 22.433434 22.433434 0 0 0 0-31.061678 46.592518 46.592518 0 0 0-13.80519-9.778677c-1.150433 0-2.876081-1.725649-3.451298-3.451297a10.929109 10.929109 0 0 1-1.725649-5.752163 17.256488 17.256488 0 0 1 1.150433-7.477811 32.787327 32.787327 0 0 1 2.300865-8.053028l4.026514-6.902595a17.256488 17.256488 0 0 1 4.60173-4.601731 6.327379 6.327379 0 0 1 4.026514-1.150432l4.026514 1.150432a38.53949 38.53949 0 0 0 16.106055 1.725649 24.159083 24.159083 0 0 0 14.955623-6.902595 27.035165 27.035165 0 0 0 4.60173-8.053028l1.725649-8.628244v-7.477811a22.433434 22.433434 0 0 1-0.575216-5.176947 36.813841 36.813841 0 0 1-1.150433-4.026514 7.477811 7.477811 0 0 1 0.575217-3.451297 25.309516 25.309516 0 0 1 5.176946-6.327379l8.628244-4.026514 9.20346-2.876081h6.902595a5.752163 5.752163 0 0 1 5.176947 2.300865l2.876081 4.026514a26.459948 26.459948 0 0 0 9.20346 12.079541 22.433434 22.433434 0 0 0 14.955623 5.176947 26.459948 26.459948 0 0 0 16.106056-4.60173 25.309516 25.309516 0 0 0 9.20346-12.654758l3.451298-4.026514a5.752163 5.752163 0 0 1 4.60173-2.300865l7.477811 1.150432 8.628244 2.876082 7.477812 4.026513 5.752163 6.327379a10.929109 10.929109 0 0 1 0.575216 4.601731c-0.575216 1.150433-0.575216 2.876081-1.150433 3.451297a27.610381 27.610381 0 0 0-2.300865 15.530839 27.035165 27.035165 0 0 0 7.477812 13.805191 24.159083 24.159083 0 0 0 15.530839 6.902595 33.362544 33.362544 0 0 0 16.681272-2.876081l4.60173-1.150433a8.628244 8.628244 0 0 1 5.176946 2.300865 44.866869 44.866869 0 0 1 6.902596 10.929109 67.300303 67.300303 0 0 1 4.026513 14.380407 12.079542 12.079542 0 0 1-1.725648 6.902595 10.353893 10.353893 0 0 1-4.026514 2.876082 31.636895 31.636895 0 0 0-13.229974 9.778676 24.159083 24.159083 0 0 0-5.752163 16.106056 25.884732 25.884732 0 0 0 4.60173 14.955623zM790.515255 174.290529a60.972924 60.972924 0 0 0-17.831704-12.079541 61.548141 61.548141 0 0 0-43.716436 0 54.645545 54.645545 0 0 0-17.831705 12.079541 60.397708 60.397708 0 0 0-11.504325 17.256488 55.220762 55.220762 0 0 0-4.60173 21.858218 54.645545 54.645545 0 0 0 4.60173 21.283002 63.273789 63.273789 0 0 0 11.504325 17.831705 52.919897 52.919897 0 0 0 17.831705 11.504325 55.220762 55.220762 0 0 0 21.858218 4.60173 52.34468 52.34468 0 0 0 21.283002-4.60173 47.74295 47.74295 0 0 0 17.831704-11.504325 56.946411 56.946411 0 0 0 16.681272-39.114707 55.220762 55.220762 0 0 0-4.60173-21.858218 60.397708 60.397708 0 0 0-11.504326-17.256488z" fill="#C7E2F3" /><path d="M598.968238 571.76497l-81.105494 243.316482-86.857656-236.989103c-108.140658 32.787327-185.794855 125.397146-185.794855 234.688237 0 4.60173 0.575216 9.20346 0.575217 14.380407h543.579373a131.724525 131.724525 0 0 0 1.150432-14.380407c0-113.317605-76.503764-211.679587-191.547017-241.015616z" fill="#C7E2F3" /><path d="M514.986663 755.834176l33.93776-87.432873-20.707786-56.94641a11.504325 11.504325 0 0 0 10.929109-10.929109v-18.982137a10.929109 10.929109 0 0 0-10.929109-10.929109h-27.035165a10.353893 10.353893 0 0 0-10.353892 10.929109v18.982137a10.929109 10.929109 0 0 0 10.353892 10.929109h0.575217l-21.283002 55.220761z" fill="#C7E2F3" /><path d="M514.986663 268.050781a139.777553 139.777553 0 1 0 139.202337 139.202337 139.202337 139.202337 0 0 0-139.202337-139.202337zM548.924423 509.066397c-29.911246 8.628244-71.326817 6.327379-100.662847-13.229974s-44.866869-41.990788-50.619032-88.008089c0 0 38.53949-13.229974 51.769464-84.556791 0 0 62.698573 78.229412 177.166611 56.371194 0 0 15.530839 103.538928-77.654196 129.42366z" fill="#C7E2F3" /></svg>